<?xml version="1.0" encoding="utf-8"?>
<!-- Generator: Adobe Illustrator 19.0.0, SVG Export Plug-In . SVG Version: 6.00 Build 0)  -->
<svg version="1.1" id="Layer_1" xmlns="http://www.w3.org/2000/svg" xmlns:xlink="http://www.w3.org/1999/xlink" x="0px" y="0px"
	 viewBox="0 0 149.9 77.3" style="enable-background:new 0 0 149.9 77.3;" xml:space="preserve">
<style type="text/css">
	.st0{fill:none;stroke:#000000;stroke-miterlimit:10;}
</style>
<path id="XMLID_45_" class="st0" d="M64.3,54.2L37,38.5l26.7-15.4c5.7-3.3,7.7-10.7,4.4-16.4C64.8,1,57.4-1,51.7,2.3L6.8,28.2
	c-5.7,3.3-7.7,10.7-4.4,16.4c1.5,2.6,3.9,4.4,6.6,5.3L52.3,75c5.7,3.3,13.1,1.3,16.4-4.4C72,64.9,70,57.5,64.3,54.2z"/>
<path id="XMLID_46_" class="st0" d="M143.4,28.2L98.4,2.3C92.7-1,85.4,1,82.1,6.7c-3.3,5.7-1.3,13.1,4.4,16.4l26.7,15.4L85.8,54.2
	c-5.7,3.3-7.7,10.7-4.4,16.4c3.3,5.7,10.7,7.7,16.4,4.4L141.2,50c2.7-0.9,5-2.7,6.6-5.3C151.1,38.9,149.1,31.5,143.4,28.2z"/>
</svg>
